<?xml version="1.0" encoding="utf-8"?>
<!-- Generator: Adobe Illustrator 23.0.3, SVG Export Plug-In . SVG Version: 6.00 Build 0)  -->
<svg version="1.1" id="Capa_1" xmlns="http://www.w3.org/2000/svg" xmlns:xlink="http://www.w3.org/1999/xlink" x="0px" y="0px"
	 viewBox="0 0 420.8 420.8" style="enable-background:new 0 0 420.8 420.8;" xml:space="preserve">
<style type="text/css">
	.st0{fill:#E4B7A8;}
</style>
<g>
	<g id="Guides_For_Artboard_18_">
	</g>
	<g id="Artwork_17_">
	</g>
	<g id="Layer_2_17_">
		<g>
			<path class="st0" d="M390.3,72.7c-19.3-25.3-48.7-39.8-89.8-44.2c-4-0.4-7.6-0.6-11.1-0.6c-29.1,0-58.5,10.8-81,29.1
				c-22.5-18.3-51.9-29.1-80.9-29.1c-3.6,0-7.2,0.2-11.2,0.6c-41.1,4.4-70.5,18.9-89.8,44.2C7.3,97.8,1,130.8,7.5,170.9
				c3,18.4,12.2,37.5,25.1,56.7h71.8l43.1-120.1c1.3-3.5,4.8-5.7,8.6-5.2c3.7,0.5,6.6,3.5,6.9,7.3l12.8,149.4l23.9-86.3
				c1-3.5,4.2-6,7.9-5.9c3.7,0.1,6.8,2.6,7.6,6.2l13.3,57.8l22.8-95.6c0.9-3.7,4.3-6.3,8.2-6.1c3.8,0.2,7,3.1,7.5,6.9L284,257
				l7.6-24.6c1-3.4,4.1-5.6,7.6-5.6h85.6c12.6-18.9,21.5-37.7,24.5-55.9C415.8,130.8,409.5,97.8,390.3,72.7z"/>
			<path class="st0" d="M288.7,296c-1.1,3.6-4.6,5.9-8.3,5.6c-3.7-0.3-6.8-3.2-7.3-6.9L257,180.1l-20.9,87.6
				c-0.9,3.6-4.1,6.1-7.8,6.1c0,0,0,0,0,0c-3.7,0-6.9-2.6-7.8-6.2l-13.9-60.4l-27.4,98.8c-1,3.5-4.1,5.9-7.7,5.9c-0.2,0-0.5,0-0.7,0
				c-3.9-0.4-6.9-3.4-7.2-7.3l-13.5-157.2l-32.6,90.9c-1.1,3.2-4.2,5.3-7.5,5.3H44.1c26.6,34.7,63.1,69,95,99
				c0,0,27.2,27.3,35.4,34.3c6.2,5.3,19.5,15.9,33.9,15.9c14.4,0,27.8-10.6,33.9-15.9c8.2-7,35.4-34.3,35.4-34.3
				c32.2-30.3,69-64.9,95.7-99.9h-68.3L288.7,296z"/>
		</g>
	</g>
</g>
</svg>
