<?xml version="1.0" encoding="utf-8"?>
<!-- Generator: Adobe Illustrator 23.0.3, SVG Export Plug-In . SVG Version: 6.00 Build 0)  -->
<svg version="1.1" id="Camada_1" xmlns="http://www.w3.org/2000/svg" xmlns:xlink="http://www.w3.org/1999/xlink" x="0px" y="0px"
	 viewBox="0 0 511 511" style="enable-background:new 0 0 511 511;" xml:space="preserve">
<style type="text/css">
	.st0{fill:#E4B7A8;}
</style>
<g>
	<path class="st0" d="M131,420.2c2.6-4.9,2.3-10.8-0.9-15.4L108,372.3l22.1-32.5c3.1-4.6,3.5-10.5,0.9-15.4s-7.7-8-13.2-8H14l0,0
		c-8.3,0-15,6.7-15,15V496c0,8.3,6.7,15,15,15s15-6.7,15-15v-67.9h88.8C123.3,428.2,128.4,425.1,131,420.2z M77.5,380.7l11.9,17.5
		H28.9v-51.9h60.5l-11.9,17.5C74,368.9,74,375.6,77.5,380.7z"/>
	<path class="st0" d="M383.3,256.5H124.8c-52.8,0-95.8-43-95.8-95.8s43-95.8,95.8-95.8H459l-9.4,9.4c-5.8,5.8-5.8,15.3,0,21.2
		c2.9,2.9,6.8,4.4,10.6,4.4c3.8,0,7.7-1.5,10.6-4.4l34.9-34.9c5.8-5.8,5.8-15.3,0-21.2l-35-35c-5.8-5.8-15.3-5.8-21.2,0
		c-5.8,5.8-5.8,15.3,0,21.2l9.4,9.4H124.8C55.4,34.9-1,91.3-1,160.7s56.4,125.8,125.8,125.8h258.5c53.4,0,96.8,43.7,96.8,97.3
		c0,26.1-10.1,50.6-28.4,68.9s-42.6,28.4-68.4,28.4H73.9c-8.3,0-15,6.7-15,15s6.7,15,15,15h309.4c33.8,0,65.6-13.2,89.6-37.2
		s37.2-56,37.2-90.1C510,313.6,453.1,256.5,383.3,256.5z"/>
</g>
</svg>
