<?xml version="1.0" encoding="utf-8"?>
<!-- Generator: Adobe Illustrator 23.0.3, SVG Export Plug-In . SVG Version: 6.00 Build 0)  -->
<svg version="1.1" id="Capa_1" xmlns="http://www.w3.org/2000/svg" xmlns:xlink="http://www.w3.org/1999/xlink" x="0px" y="0px"
	 viewBox="0 0 92 92" style="enable-background:new 0 0 92 92;" xml:space="preserve">
<style type="text/css">
	.st0{fill:#E4B7A8;}
</style>
<path class="st0" d="M45.4,0C20,0.3-0.3,21.2,0,46.6C0.3,72,21.2,92.3,46.6,92C72,91.7,92.3,70.8,92,45.4C91.7,20,70.8-0.3,45.4,0z
	 M45.5,6c6.9-0.1,13.3,1.5,19,4.5l-6.2,10.3C54.6,19,50.4,18,46,18c-4.4,0-8.6,1-12.3,2.8l-6.2-10.3C32.9,7.7,39,6.1,45.5,6z
	 M10.5,64.5C7.7,59.1,6.1,53,6,46.5c-0.1-6.9,1.5-13.3,4.5-19l10.3,6.2C19,37.4,18,41.6,18,46c0,4.4,1,8.6,2.8,12.3L10.5,64.5z
	 M46.5,86c-6.9,0.1-13.3-1.5-19-4.5l6.2-10.3C37.4,73,41.6,74,46,74c4.4,0,8.6-1,12.3-2.8l6.2,10.3C59.1,84.3,53,85.9,46.5,86z
	 M46,68c-12.2,0-22-9.8-22-22c0-12.1,9.8-22,22-22s22,9.9,22,22C68,58.2,58.2,68,46,68z M71.2,58.3C73,54.6,74,50.4,74,46
	c0-4.4-1-8.6-2.8-12.3l10.3-6.2c2.8,5.4,4.4,11.5,4.5,17.9c0.1,6.9-1.5,13.3-4.5,19L71.2,58.3z"/>
</svg>
