<?xml version="1.0" encoding="utf-8"?>
<!-- Generator: Adobe Illustrator 23.0.3, SVG Export Plug-In . SVG Version: 6.00 Build 0)  -->
<svg version="1.1" id="Capa_1" xmlns="http://www.w3.org/2000/svg" xmlns:xlink="http://www.w3.org/1999/xlink" x="0px" y="0px"
	 viewBox="0 0 475.1 475.1" style="enable-background:new 0 0 475.1 475.1;" xml:space="preserve">
<style type="text/css">
	.st0{fill:#E4B7A8;}
</style>
<path class="st0" d="M462.1,285.8c-8.7-11.2-20.8-16.9-36.4-16.9c-8.2,0-16.1,1.4-23.7,4.3s-13.8,6-18.4,9.6
	c-4.7,3.5-9.7,6.7-15.1,9.6s-10.2,4.3-14.4,4.3c-8.6,0-17-4.4-25.4-13.1c-6.7-7-10-18.2-10-33.4c0-18.1,2.3-41.4,6.8-69.9
	c0.2-0.6,0.5-2.6,1-6.1s1-6.8,1.4-9.7c0.5-3,0.8-4.6,1-5v-0.6c-8.9,0.4-24.5,2-46.5,4.9c-22.1,2.9-39.2,4.3-51.4,4.3
	c-11.6,0-21.4-2.5-29.4-7.6c-8-5-12-13-12-23.8c0-7,1.7-13.8,5-20.3s6.9-11.9,10.8-16.1c3.9-4.3,7.5-9.9,10.9-16.8
	c3.3-6.9,5-14.3,5-22.1c0-15-5.1-26.8-15.4-35.3c-10.3-8.5-23-12.7-38.3-12.7c-16.2,0-29.9,4.3-41.1,13s-16.8,20.8-16.8,36.4
	c0,8.2,1.4,16.1,4.3,23.7s6,13.8,9.6,18.4c3.5,4.7,6.7,9.7,9.6,15.1s4.3,10.2,4.3,14.4c0,8.6-4.4,17-13.1,25.4
	c-7,6.7-18.2,10-33.4,10c-18.1,0-41.4-2.3-69.9-6.9c-0.6-0.2-2.6-0.5-6.1-1s-6.8-1-9.7-1.4c-3-0.5-4.6-0.8-5-1v292.4
	c0,0.2,0.2,0.3,0.6,0.3c0.4,0.2,0.7,0.3,0.9,0.3l3.7,0.6c1.7,0.4,4.3,0.8,7.9,1.1c3.5,0.4,6.1,0.8,7.9,1.1
	c28.5,4.6,51.9,6.9,69.9,6.9c15.2,0,26.4-3.3,33.4-10c8.8-8.4,13.1-16.8,13.1-25.4c0-4.2-1.4-9-4.3-14.4c-2.9-5.4-6-10.5-9.6-15.1
	c-3.5-4.7-6.7-10.8-9.6-18.4s-4.3-15.5-4.3-23.7c0-15.6,5.6-27.7,16.8-36.4c11.2-8.7,24.8-13,40.8-13c15.4,0,28.3,4.2,38.5,12.7
	c10.3,8.5,15.4,20.2,15.4,35.3c0,7.8-1.7,15.2-5,22.1c-3.3,7-7,12.6-10.9,16.9s-7.5,9.7-10.8,16.1c-3.3,6.5-5,13.2-5,20.3
	c0,10.9,4,18.8,12,23.8s17.8,7.6,29.4,7.6c8.8,0,18.1-0.5,28-1.4s20.9-2.2,33-3.9c12.1-1.6,21.4-2.7,27.8-3.3
	c2.1-0.2,5.2-0.3,9.4-0.3v-1.4c0.2-7.4-1.2-18.4-4.3-32.8c-3-14.5-4.6-25.4-4.6-32.8c0-23.6,10.5-35.4,31.4-35.4
	c7,0,13.8,1.7,20.3,5s11.8,7,16.1,10.9c4.3,3.9,9.9,7.5,16.9,10.9c6.9,3.3,14.3,5,22.1,5c15,0,26.8-5.1,35.3-15.4
	s12.7-23.1,12.7-38.5C475.1,310.6,470.8,297,462.1,285.8z"/>
</svg>
